<svg xmlns="http://www.w3.org/2000/svg" version="1.1" xmlns:xlink="http://www.w3.org/1999/xlink" xmlns:svgjs="http://svgjs.dev/svgjs" width="2000" height="232" viewBox="0 0 2000 232"><g transform="matrix(1,0,0,1,-1.2121212121212466,-1.4201015480218473)"><svg viewBox="0 0 396 46" data-background-color="#ffffff" preserveAspectRatio="xMidYMid meet" height="232" width="2000" xmlns="http://www.w3.org/2000/svg" xmlns:xlink="http://www.w3.org/1999/xlink"><g id="tight-bounds" transform="matrix(1,0,0,1,0.2400000000000091,0.28157185865950396)"><svg viewBox="0 0 395.52 45.43685628268102" height="45.43685628268102" width="395.52"><g><svg viewBox="0 0 395.52000000000004 45.43685628268103" height="45.43685628268102" width="395.52"><g><svg viewBox="0 0 395.52000000000004 45.43685628268103" height="45.43685628268103" width="395.52000000000004"><g id="textblocktransform"><svg viewBox="0 0 395.52000000000004 45.43685628268103" height="45.43685628268103" width="395.52000000000004" id="textblock"><g><svg viewBox="0 0 395.52000000000004 45.43685628268103" height="45.43685628268103" width="395.52000000000004"><g transform="matrix(1,0,0,1,0,0)"><svg width="395.52000000000004" viewBox="0.4 -34 315.53 36.25" height="45.43685628268103" data-palette-color="#ef6a1f"><g class="wordmark-text-0" data-fill-palette-color="primary" id="text-0"><path d="M31.4 0.2Q28.25 0.2 25.7-1.13 23.15-2.45 21.55-6.3L21.55-6.3 20.4-9.1 7.1-9.1 3 0 0.4 0 15.15-33 17.4-33 28.6-6.3Q30.5-1.65 33.8-1.3L33.8-1.3 33.8-0.05Q32.9 0.2 31.4 0.2L31.4 0.2ZM13.95-24.4L8.15-11.35 19.45-11.35 13.95-24.4ZM47.3 0.5L35.65-27.15Q34.5-29.9 33.37-31.05 32.25-32.2 30.7-32.4L30.7-32.4 30.7-33.4 32.8-33.5Q36.1-33.5 38.6-32.25 41.1-31 42.7-27.15L42.7-27.15 50.6-8.45 61.15-33 63.7-33 49.3 0.5 47.3 0.5ZM72.55 0Q70.75 0 69.8-0.58 68.84-1.15 68.44-2.53 68.05-3.9 68.05-6.5L68.05-6.5 68.05-33 74.55-33 74.55-6.5Q74.55-3.95 75.25-2.73 75.94-1.5 78.05-1.5L78.05-1.5 78.55-1.5 78.55 0 72.55 0ZM107.29 0.5Q104.54 0.5 102.29-1.13 100.04-2.75 97.59-6.75L97.59-6.75 92.59-15.1 90.59-15.1 90.59 0 84.04 0 84.04-26.5Q84.04-29.05 83.34-30.28 82.64-31.5 80.54-31.5L80.54-31.5 80.04-31.5 80.04-33 93.84-33Q99.04-33 103.19-31.1 107.34-29.2 107.34-23.8L107.34-23.8Q107.34-17.55 99.24-15.5L99.24-15.5 104.49-6.75Q107.44-1.8 110.69-1.25L110.69-1.25 110.69 0Q110.29 0.2 109.24 0.35 108.19 0.5 107.29 0.5L107.29 0.5ZM90.59-17.1L93.59-17.1Q96.39-17.1 98.37-18.78 100.34-20.45 100.34-24.05L100.34-24.05Q100.34-27.6 98.39-29.3 96.44-31 93.84-31L93.84-31Q92.39-31 91.59-30.8L91.59-30.8 90.59-30.65 90.59-17.1ZM141.49 0.2Q138.34 0.2 135.79-1.13 133.24-2.45 131.64-6.3L131.64-6.3 130.49-9.1 117.19-9.1 113.09 0 110.49 0 125.24-33 127.49-33 138.69-6.3Q140.59-1.65 143.89-1.3L143.89-1.3 143.89-0.05Q142.99 0.2 141.49 0.2L141.49 0.2ZM124.04-24.4L118.24-11.35 129.54-11.35 124.04-24.4ZM184.79 2.25Q179.39 2.25 177.01-0.28 174.64-2.8 174.64-8.5L174.64-8.5 174.64-26.2 163.69 0 162.04 0 148.64-27.2 148.64 0 146.14 0 146.14-33 152.24-33 164.34-8.45 174.59-33 181.14-33 181.14-8.5Q181.14-3.8 181.94-1.6 182.74 0.6 184.79 1L184.79 1 184.79 2.25ZM217.19 0.2Q214.03 0.2 211.49-1.13 208.94-2.45 207.34-6.3L207.34-6.3 206.19-9.1 192.88-9.1 188.78 0 186.19 0 200.94-33 203.19-33 214.38-6.3Q216.28-1.65 219.59-1.3L219.59-1.3 219.59-0.05Q218.69 0.2 217.19 0.2L217.19 0.2ZM199.73-24.4L193.94-11.35 205.24-11.35 199.73-24.4ZM246.73 0.15L225.53-24.75 225.53 0 223.03 0 223.03-27Q223.03-29.1 222.01-30.3 220.98-31.5 218.53-31.5L218.53-31.5 218.28-31.5 218.28-33 221.78-33Q224.58-33 226.36-32.27 228.13-31.55 229.33-30L229.33-30 246.53-10 246.53-33 249.03-33 249.03 0.15 246.73 0.15Z" fill="#ef6a1f" data-fill-palette-color="primary"></path><path d="M263.58 0L263.58-3.25Q264.98-4.65 265.88-5.45L265.88-5.45Q269.53-8.85 272.23-11.75 274.93-14.65 276.98-18.03 279.03-21.4 279.03-24.35L279.03-24.35Q279.03-28 277.43-29.88 275.83-31.75 273.53-31.75L273.53-31.75Q270.28-31.75 268.18-29.6 266.08-27.45 265.33-23L265.33-23 263.58-23Q263.58-25.65 263.78-27.3 263.98-28.95 264.78-30L264.78-30Q266.18-31.7 268.83-32.85 271.48-34 274.53-34L274.53-34Q279.08-34 282.55-31.9 286.03-29.8 286.03-24.35L286.03-24.35Q286.03-20.95 283.65-17.4 281.28-13.85 278.25-11.03 275.23-8.2 271.18-5L271.18-5Q268.78-3.1 267.93-2.25L267.93-2.25 278.28-2.25Q281.28-2.25 282.9-3.68 284.53-5.1 284.53-7.75L284.53-7.75 286.03-7.75 286.03-4Q286.03 0 281.78 0L281.78 0 263.58 0ZM311.43 0L304.93 0 304.93-8.5 288.93-8.5 288.93-10.5 306.23-33 311.43-33 311.43-10.75 315.93-10.75 315.93-8.5 311.43-8.5 311.43 0ZM304.93-27.15L292.38-10.75 304.93-10.75 304.93-27.15Z" fill="#252422" data-fill-palette-color="secondary"></path></g></svg></g></svg></g></svg></g></svg></g></svg></g><defs></defs></svg><rect width="395.52" height="45.43685628268102" fill="none" stroke="none" visibility="hidden"></rect></g></svg></g></svg>